<svg xmlns="http://www.w3.org/2000/svg" width="372.367" height="512" viewBox="0 0 372.367 512">
  <g id="baker" transform="translate(-69.817)">
    <path id="Path_1" data-name="Path 1" d="M185.473,396.6a93.5,93.5,0,0,0-93.506,93.5V512h52.308l7.948-6.422L159.728,512H200.2l83.858-115.4Z" fill="#d7d9cc"/>
    <path id="Path_2" data-name="Path 2" d="M326.525,396.6H284.054l-42.685,34.943L200.2,464.993V512H352.271L360,506.093,367.723,512h52.308V490.094A93.5,93.5,0,0,0,326.525,396.6Z" fill="#f3f5e6"/>
    <path id="Path_3" data-name="Path 3" d="M144.274,512V465.836a7.726,7.726,0,1,1,15.452,0V512Z" fill="#bdbfb4"/>
    <g id="Group_1" data-name="Group 1">
      <path id="Path_4" data-name="Path 4" d="M360,458.109a7.726,7.726,0,0,0-7.726,7.726V512h15.453V465.835A7.727,7.727,0,0,0,360,458.109Z" fill="#d7d9cc"/>
      <circle id="Ellipse_1" data-name="Ellipse 1" cx="9.469" cy="9.469" r="9.469" transform="translate(226.575 469.05)" fill="#d7d9cc"/>
      <circle id="Ellipse_2" data-name="Ellipse 2" cx="9.469" cy="9.469" r="9.469" transform="translate(305.693 469.05)" fill="#d7d9cc"/>
    </g>
    <path id="Path_5" data-name="Path 5" d="M424.046,228.746,256,213.338,87.951,228.746v71.109H424.046Z" fill="#a8503c"/>
    <circle id="Ellipse_3" data-name="Ellipse 3" cx="35.346" cy="35.346" r="35.346" transform="translate(371.492 264.941)" fill="#e3b098"/>
    <ellipse id="Ellipse_4" data-name="Ellipse 4" cx="153.878" cy="143.061" rx="153.878" ry="143.061" transform="translate(102.12 146.059)" fill="#fbc4ac"/>
    <path id="Path_6" data-name="Path 6" d="M133.022,289.123c0-74.161,60.7-135.139,138.43-142.344q-7.625-.708-15.453-.715c-76.128,0-139.335,51.4-151.687,118.9a35.337,35.337,0,0,0,.847,70.663,25.918,25.918,0,0,0,5.1-.459c20.618,56.42,78.076,97.016,145.737,97.016q7.824,0,15.453-.715C193.721,424.263,133.022,363.285,133.022,289.123Z" fill="#e3b098"/>
    <path id="Path_7" data-name="Path 7" d="M376.25,0a65.928,65.928,0,0,0-60.126,38.889,65.924,65.924,0,0,0-120.251,0A65.928,65.928,0,1,0,87.95,111.341h0v86.59L256,213.338l168.047-15.406v-86.59h0A65.93,65.93,0,0,0,376.25,0Z" fill="#f3f5e6"/>
    <path id="Path_8" data-name="Path 8" d="M118.857,197.932v-86.59h0a65.927,65.927,0,0,1,32.357-109.5,65.931,65.931,0,0,0-63.263,109.5h0v86.591L256,213.338l15.453-1.417Z" fill="#d7d9cc"/>
    <path id="Path_9" data-name="Path 9" d="M256,345.368c17.4,21.748,43.033,12.735,56.553,5.593a4.925,4.925,0,0,0,.474-8.412c-7.75-5.423-12.262-17.3-18.664-23.264-9.945-9.27-27.079-14.9-38.363-4.67-11.284-10.231-28.418-4.6-38.363,4.67-6.4,5.966-10.914,17.841-18.664,23.264a4.925,4.925,0,0,0,.474,8.412C212.966,358.1,238.6,367.115,256,345.368Z" fill="#ff2f00"/>
    <path id="Path_10" data-name="Path 10" d="M340.817,307.147a7.726,7.726,0,0,1-7.726-7.726V282.929a7.726,7.726,0,0,1,15.452,0v16.492A7.725,7.725,0,0,1,340.817,307.147Z" fill="#3b484a"/>
    <path id="Path_11" data-name="Path 11" d="M352.048,331.389H329.586a7.726,7.726,0,1,1,0-15.452h22.462a7.726,7.726,0,0,1,0,15.452Z" fill="#f98084"/>
    <path id="Path_12" data-name="Path 12" d="M171.18,307.147a7.726,7.726,0,0,1-7.726-7.726V282.929a7.726,7.726,0,1,1,15.452,0v16.492A7.726,7.726,0,0,1,171.18,307.147Z" fill="#3b484a"/>
    <path id="Path_13" data-name="Path 13" d="M182.412,331.389H159.949a7.726,7.726,0,0,1,0-15.452h22.463a7.726,7.726,0,0,1,0,15.452Z" fill="#f98084"/>
    <g id="Group_2" data-name="Group 2">
      <path id="Path_14" data-name="Path 14" d="M256,175.266a7.726,7.726,0,0,1-7.726-7.726V81.3a7.726,7.726,0,1,1,15.452,0V167.54A7.726,7.726,0,0,1,256,175.266Z" fill="#d7d9cc"/>
      <path id="Path_15" data-name="Path 15" d="M178.55,175.266a7.726,7.726,0,0,1-7.726-7.726V81.3a7.726,7.726,0,1,1,15.452,0V167.54A7.726,7.726,0,0,1,178.55,175.266Z" fill="#d7d9cc"/>
      <path id="Path_16" data-name="Path 16" d="M333.447,175.266a7.726,7.726,0,0,1-7.726-7.726V81.3a7.726,7.726,0,0,1,15.452,0V167.54A7.726,7.726,0,0,1,333.447,175.266Z" fill="#d7d9cc"/>
      <rect id="Rectangle_1" data-name="Rectangle 1" width="336.097" height="30.814" transform="translate(87.955 197.929)" fill="#d7d9cc"/>
    </g>
    <rect id="Rectangle_2" data-name="Rectangle 2" width="30.905" height="30.813" transform="translate(87.955 197.929)" fill="#bdbfb4"/>
  </g>
</svg>
