<svg xmlns="http://www.w3.org/2000/svg" width="120" height="120" viewBox="0 0 120 120">
  <g id="bakerbigote" transform="translate(-3641 662)">
    <path id="Path_17" data-name="Path 17" d="M256.832,345.878c17.643,22.054,43.639,12.914,57.35,5.672a4.994,4.994,0,0,0,.481-8.53c-7.859-5.5-12.435-17.541-18.927-23.592-10.085-9.4-27.46-15.111-38.9-4.736-11.443-10.375-28.818-4.665-38.9,4.736-6.492,6.05-11.068,18.092-18.927,23.592a5,5,0,0,0,.481,8.53C213.193,358.793,239.189,367.932,256.832,345.878Z" transform="translate(3444.168 -936.152)" fill="#ff2f00"/>
    <rect id="Rectangle_3" data-name="Rectangle 3" width="120" height="120" transform="translate(3641 -662)" fill="none"/>
  </g>
</svg>
